<svg width="130" height="28" viewBox="0 0 130 28" fill="none" xmlns="http://www.w3.org/2000/svg">
<rect width="130" height="28" fill="#F2F2F2"/>
<g id="Main page &#226;&#128;&#148; v1" clip-path="url(#clip0_1_2)">
<rect width="1920" height="7050" transform="translate(-895 -102)" fill="white"/>
<path id="Background" fill-rule="evenodd" clip-rule="evenodd" d="M-895 6948V-102H1025V6948H-895Z" fill="white"/>
<g id="Hedear">
<g id="Bg" filter="url(#filter0_d_1_2)">
<path fill-rule="evenodd" clip-rule="evenodd" d="M-895 104V-25H1025V104H-895Z" fill="white"/>
</g>
<g id="Logo">
<g id="besart">
<path id="Path 1" fill-rule="evenodd" clip-rule="evenodd" d="M5.13304 22.7027H9.37338C10.824 22.7027 11.8283 22.4504 12.4978 21.8198C13.1674 21.1892 13.5021 20.3063 13.5021 19.2973C13.5021 18.1622 13.1674 17.2793 12.3862 16.5225C11.7167 15.7658 10.7124 15.3874 9.48496 15.3874H5.13303L5.13304 22.7027ZM5.13304 11.4775H8.92703C9.93132 11.4775 10.824 11.2252 11.6051 10.5946C12.2747 9.96396 12.6094 9.08107 12.6094 8.07206C12.6094 7.06305 12.2747 6.3063 11.7167 5.67567C11.0472 5.04504 10.2661 4.79279 9.03862 4.79279H5.13304V11.4775ZM0 27.4955V0H9.70815C12.3863 0 14.3948 0.63063 15.7339 2.01802C17.073 3.27928 17.7425 5.04505 17.7425 7.06306C17.7425 8.7027 17.2961 9.96397 16.515 10.973C15.7339 11.982 14.618 12.6126 13.3905 12.991V13.2432C14.2833 13.2432 15.176 13.6216 15.9571 14.1261C16.7382 14.6306 17.4077 15.3874 17.9657 16.3964C18.5236 17.4054 18.7468 18.5405 18.7468 19.9279C18.7468 21.4414 18.412 22.7027 17.7425 23.8378C17.073 24.973 16.1803 25.8558 14.9528 26.4865C13.7253 27.1171 12.1631 27.4955 10.3777 27.4955H0Z" fill="#000C22"/>
<path id="Path 2" fill-rule="evenodd" clip-rule="evenodd" d="M22.099 27.491V9.99836e-06H38.4959V4.79201H27.23V11.3495H37.6035V16.1415H27.23V22.699H38.4959V27.491H22.099Z" fill="#000C22"/>
<path id="Path 3" fill-rule="evenodd" clip-rule="evenodd" d="M55.7918 7.94595C55.6802 6.81081 55.2338 6.05406 54.5642 5.42343C53.8945 4.7928 52.8901 4.54055 51.6624 4.54055C50.4347 4.54055 49.4303 4.7928 48.7607 5.42343C48.091 6.05406 47.7562 6.68469 47.7562 7.56757C47.7562 8.57658 48.091 9.33333 48.8722 9.83784C49.6535 10.3424 50.5463 10.7207 51.5508 10.973L53.7829 11.6036C55.2338 11.982 56.4615 12.4865 57.5775 13.1171C58.6936 13.7477 59.5865 14.6306 60.1445 15.7658C60.8141 16.7748 61.0373 18.1622 61.0373 19.6757C61.0373 22.1982 60.1445 24.2162 58.582 25.7297C57.0195 27.2432 54.5642 28 51.6624 28C48.7606 28 46.3053 27.2432 44.6312 25.7297C42.9571 24.2162 41.9527 21.9459 41.841 19.045H46.8633C46.9749 20.4324 47.4214 21.4415 48.3142 22.1982C49.2071 22.955 50.3231 23.2072 51.6624 23.2072C53.0017 23.2072 54.0061 22.955 54.7874 22.3243C55.5686 21.6937 56.015 20.937 56.015 19.9279C56.015 19.0451 55.6802 18.2883 54.899 17.7838C54.1177 17.2793 53.1133 16.9009 51.8856 16.5225L49.2071 15.7658C47.1981 15.2613 45.524 14.3784 44.2964 13.1171C43.0687 11.8559 42.5107 10.3424 42.5107 8.32433C42.5107 6.68469 42.8455 5.17118 43.7383 3.90992C44.5196 2.64866 45.6357 1.63965 46.9749 1.00902C48.3142 0.37839 49.9883 1e-05 51.774 1e-05C53.5597 1e-05 55.1222 0.37839 56.4615 1.00902C57.8007 1.76577 58.9168 2.64866 59.5864 3.90992C60.2561 5.17118 60.7025 6.55857 60.7025 8.19821H55.7918L55.7918 7.94595Z" fill="#000C22"/>
<path id="Path 4" fill-rule="evenodd" clip-rule="evenodd" d="M71.3047 16.6486H77.442L74.4292 6.18017H74.206L71.3047 16.6486ZM68.1802 27.4955H62.6008L70.9699 0H77.5536L86.0343 27.4955H80.5665L78.7811 21.1892H69.9656L68.1802 27.4955Z" fill="#000C22"/>
<path id="Path 5" fill-rule="evenodd" clip-rule="evenodd" d="M94.1802 13.1171H97.6394C100.541 13.1171 101.991 11.7297 101.991 9.08107C101.991 6.3063 100.541 4.79278 97.5278 4.79278H94.0686V13.1171L94.1802 13.1171ZM89.0471 27.4955V0H98.6437C101.433 0 103.554 0.75676 105.116 2.39639C106.678 4.03603 107.459 6.18017 107.459 8.95495C107.459 10.8468 107.124 12.4865 106.343 13.7477C105.562 15.1351 104.558 16.1441 103.107 16.7748L108.24 27.4955H102.549L97.9741 17.7838H94.1802V27.4955H89.0471Z" fill="#000C22"/>
<path id="Path 6" fill-rule="evenodd" clip-rule="evenodd" d="M110.021 4.792V0H130V4.792H122.522V27.491H117.388V4.792H110.021Z" fill="#000C22"/>
</g>
</g>
</g>
</g>
<defs>
<filter id="filter0_d_1_2" x="-945" y="-65" width="2020" height="229" filterUnits="userSpaceOnUse" color-interpolation-filters="sRGB">
<feFlood flood-opacity="0" result="BackgroundImageFix"/>
<feColorMatrix in="SourceAlpha" type="matrix" values="0 0 0 0 0 0 0 0 0 0 0 0 0 0 0 0 0 0 127 0" result="hardAlpha"/>
<feOffset dy="10"/>
<feGaussianBlur stdDeviation="25"/>
<feColorMatrix type="matrix" values="0 0 0 0 0 0 0 0 0 0 0 0 0 0 0 0 0 0 0.05 0"/>
<feBlend mode="normal" in2="BackgroundImageFix" result="effect1_dropShadow_1_2"/>
<feBlend mode="normal" in="SourceGraphic" in2="effect1_dropShadow_1_2" result="shape"/>
</filter>
<clipPath id="clip0_1_2">
<rect width="1920" height="7050" fill="white" transform="translate(-895 -102)"/>
</clipPath>
</defs>
</svg>
