<svg width="78" height="28" viewBox="0 0 78 28" fill="none" xmlns="http://www.w3.org/2000/svg">
<path fill-rule="evenodd" clip-rule="evenodd" d="M9.96553 1.24158C4.90313 7.18686 0.0492589 14.5596 0.000589987 20.0703C-0.0183696 22.1438 0.643566 23.954 2.2313 25.325C4.51632 27.2996 7.03395 27.9959 9.53927 28C13.2004 28.0051 16.836 26.528 19.6825 25.3891C24.4764 23.4719 77.4689 0.45875 77.4689 0.45875C77.9802 0.20257 77.8844 -0.11659 77.2445 0.04274C76.9863 0.10728 19.5539 15.6719 19.5539 15.6719C18.466 15.9796 17.3419 16.1405 16.2114 16.1504C11.7976 16.1765 7.87008 13.7265 7.90185 8.56357C7.91413 6.54338 8.53253 4.10718 9.96554 1.2416L9.96553 1.24158Z" fill="#000C22"/>
</svg>
