<svg width="7" height="9" viewBox="0 0 7 9" fill="none" xmlns="http://www.w3.org/2000/svg">
<path d="M2.2857 4.24C1.4757 4.48 0.945703 5.14 0.945703 6.05C0.945703 7.36 1.9757 8.2 3.4957 8.2C5.0257 8.2 6.0657 7.36 6.0657 6.05C6.0657 5.15 5.5357 4.49 4.7157 4.24C5.4257 3.96 5.8757 3.36 5.8757 2.58C5.8757 1.53 5.0657 0.66 3.4957 0.66C1.9257 0.66 1.1257 1.52 1.1257 2.58C1.1257 3.39 1.5457 3.95 2.2857 4.24ZM3.4957 3.94C2.6157 3.94 2.0057 3.45 2.0057 2.7C2.0057 1.85 2.6057 1.42 3.4957 1.42C4.4057 1.42 4.9957 1.86 4.9957 2.69C4.9957 3.44 4.3857 3.94 3.4957 3.94ZM3.4957 4.64C4.4457 4.64 5.1657 5.09 5.1657 6.02C5.1657 6.86 4.5257 7.44 3.4957 7.44C2.4657 7.44 1.8157 6.87 1.8157 6.02C1.8157 5.06 2.5657 4.64 3.4957 4.64Z" fill="white"/>
</svg>
